<?xml version="1.0" encoding="UTF-8"?>
<svg xmlns="http://www.w3.org/2000/svg" xmlns:xlink="http://www.w3.org/1999/xlink" width="16px" height="16px" viewBox="0 0 16 16" version="1.1">
<g id="surface1">
<path style=" stroke:none;fill-rule:nonzero;fill:rgb(0%,0%,0%);fill-opacity:1;" d="M 6.332031 2.203125 C 6.179688 2.257812 6.007812 2.414062 5.933594 2.578125 C 5.886719 2.679688 5.875 2.777344 5.875 3.070312 L 5.875 3.4375 L 4.929688 3.4375 C 4.355469 3.4375 3.9375 3.449219 3.863281 3.472656 C 3.707031 3.515625 3.492188 3.726562 3.445312 3.894531 C 3.421875 3.972656 3.40625 4.210938 3.40625 4.503906 C 3.40625 4.898438 3.417969 5.007812 3.464844 5.109375 C 3.546875 5.289062 3.742188 5.453125 3.929688 5.5 L 4.09375 5.539062 L 4.101562 9.335938 C 4.109375 13.132812 4.109375 13.140625 4.175781 13.285156 C 4.273438 13.492188 4.417969 13.640625 4.617188 13.742188 L 4.796875 13.828125 L 7.933594 13.835938 C 11.441406 13.847656 11.265625 13.855469 11.554688 13.628906 C 11.664062 13.542969 11.742188 13.445312 11.800781 13.320312 L 11.890625 13.140625 L 11.898438 9.335938 L 11.90625 5.539062 L 12.070312 5.5 C 12.257812 5.453125 12.453125 5.289062 12.535156 5.109375 C 12.585938 5.007812 12.59375 4.898438 12.59375 4.484375 C 12.59375 4.023438 12.585938 3.972656 12.519531 3.824219 C 12.441406 3.65625 12.304688 3.53125 12.128906 3.472656 C 12.058594 3.449219 11.699219 3.4375 11.074219 3.4375 L 10.125 3.4375 L 10.125 3.070312 C 10.125 2.78125 10.113281 2.675781 10.066406 2.578125 C 9.992188 2.417969 9.789062 2.230469 9.632812 2.191406 C 9.441406 2.136719 6.488281 2.148438 6.332031 2.203125 Z M 9.539062 2.632812 C 9.667969 2.695312 9.683594 2.753906 9.6875 3.101562 L 9.6875 3.4375 L 6.3125 3.4375 L 6.3125 3.101562 C 6.3125 2.75 6.328125 2.695312 6.453125 2.632812 C 6.542969 2.582031 9.445312 2.582031 9.539062 2.632812 Z M 12.078125 3.953125 C 12.152344 4.023438 12.15625 4.039062 12.15625 4.476562 C 12.152344 4.941406 12.144531 4.988281 12.007812 5.054688 C 11.914062 5.109375 4.085938 5.109375 3.992188 5.054688 C 3.855469 4.988281 3.847656 4.941406 3.84375 4.476562 C 3.84375 4.039062 3.847656 4.023438 3.921875 3.953125 L 3.996094 3.875 L 12.003906 3.875 Z M 11.46875 9.269531 C 11.46875 13.429688 11.484375 13.132812 11.257812 13.304688 L 11.148438 13.390625 L 4.851562 13.390625 L 4.742188 13.304688 C 4.515625 13.132812 4.53125 13.429688 4.53125 9.269531 L 4.53125 5.53125 L 11.46875 5.53125 Z M 11.46875 9.269531 "/>
<path style=" stroke:none;fill-rule:nonzero;fill:rgb(0%,0%,0%);fill-opacity:1;" d="M 5.929688 7.054688 C 5.878906 7.109375 5.875 7.320312 5.875 9.460938 C 5.875 11.773438 5.875 11.8125 5.9375 11.875 C 6.027344 11.964844 6.167969 11.957031 6.246094 11.855469 C 6.3125 11.773438 6.3125 11.753906 6.3125 9.476562 C 6.3125 7.175781 6.308594 7.09375 6.207031 7.023438 C 6.140625 6.980469 5.976562 7 5.929688 7.054688 Z M 5.929688 7.054688 "/>
<path style=" stroke:none;fill-rule:nonzero;fill:rgb(0%,0%,0%);fill-opacity:1;" d="M 7.832031 7.070312 C 7.789062 7.132812 7.78125 7.410156 7.78125 9.46875 L 7.78125 11.804688 L 7.851562 11.867188 C 7.945312 11.957031 8.066406 11.957031 8.148438 11.867188 L 8.21875 11.792969 L 8.21875 9.464844 C 8.21875 6.855469 8.230469 7 8 7 C 7.910156 7 7.867188 7.019531 7.832031 7.070312 Z M 7.832031 7.070312 "/>
<path style=" stroke:none;fill-rule:nonzero;fill:rgb(0%,0%,0%);fill-opacity:1;" d="M 9.792969 7.023438 C 9.691406 7.09375 9.6875 7.175781 9.6875 9.476562 C 9.6875 11.753906 9.6875 11.773438 9.753906 11.855469 C 9.832031 11.957031 9.972656 11.964844 10.0625 11.875 C 10.125 11.8125 10.125 11.773438 10.125 9.460938 C 10.125 7.214844 10.121094 7.101562 10.070312 7.054688 C 10.007812 7 9.855469 6.984375 9.792969 7.023438 Z M 9.792969 7.023438 "/>
</g>
</svg>
