<?xml version="1.0" encoding="UTF-8"?>
<svg xmlns="http://www.w3.org/2000/svg" xmlns:xlink="http://www.w3.org/1999/xlink" width="64px" height="23px" viewBox="0 0 63 23" version="1.1">
<g id="surface1">
<path style=" stroke:none;fill-rule:nonzero;fill:rgb(0%,0%,0%);fill-opacity:1;" d="M 4.304688 0.0742188 C 3.691406 0.207031 3.171875 0.632812 2.894531 1.222656 C 2.71875 1.597656 2.675781 2.3125 2.804688 2.6875 C 2.851562 2.828125 3.332031 3.804688 3.886719 4.863281 C 4.429688 5.925781 4.882812 6.800781 4.882812 6.816406 C 4.882812 6.835938 4.015625 6.855469 2.957031 6.867188 C 1.125 6.882812 1.011719 6.886719 0.789062 6.992188 C 0.203125 7.269531 -0.109375 7.921875 0.0664062 8.503906 C 0.164062 8.816406 6.578125 21.078125 6.730469 21.246094 C 6.949219 21.480469 7.3125 21.628906 7.675781 21.628906 C 8.101562 21.625 8.367188 21.5 8.636719 21.1875 C 8.757812 21.050781 9.222656 20.214844 9.707031 19.289062 C 10.269531 18.210938 10.585938 17.660156 10.605469 17.703125 C 10.632812 17.746094 11.144531 18.734375 11.753906 19.902344 C 12.773438 21.859375 12.890625 22.046875 13.171875 22.324219 C 13.996094 23.121094 15.273438 23.074219 16.023438 22.214844 C 16.164062 22.054688 16.585938 21.320312 17.152344 20.242188 C 17.644531 19.296875 19.90625 14.984375 22.175781 10.660156 C 24.445312 6.339844 26.339844 2.671875 26.386719 2.507812 C 26.621094 1.695312 26.238281 0.734375 25.5 0.296875 C 24.972656 -0.015625 25.574219 0 14.621094 0.00390625 C 7.035156 0.00390625 4.527344 0.0273438 4.304688 0.0742188 Z M 15.371094 6.960938 C 15.464844 7.019531 15.585938 7.140625 15.644531 7.238281 C 15.871094 7.621094 15.917969 7.515625 13.664062 11.796875 C 11.128906 16.628906 11.246094 16.414062 10.984375 16.570312 C 10.636719 16.765625 10.195312 16.699219 9.9375 16.414062 C 9.875 16.347656 8.839844 14.414062 7.632812 12.117188 C 5.566406 8.1875 5.4375 7.929688 5.433594 7.667969 C 5.433594 7.359375 5.539062 7.175781 5.828125 6.972656 L 6 6.855469 L 10.601562 6.855469 C 15.09375 6.855469 15.203125 6.859375 15.371094 6.960938 Z M 15.371094 6.960938 "/>
<path style=" stroke:none;fill-rule:nonzero;fill:rgb(0%,0%,0%);fill-opacity:1;" d="M 48.902344 6.675781 C 48.058594 6.828125 47.414062 7.269531 47.117188 7.898438 C 46.847656 8.480469 46.828125 8.671875 46.828125 11.695312 C 46.828125 14.304688 46.835938 14.519531 46.933594 14.902344 C 47.316406 16.425781 48.460938 16.925781 51.1875 16.746094 C 52.410156 16.660156 52.824219 16.601562 52.910156 16.488281 C 52.953125 16.429688 52.972656 16.175781 52.972656 15.703125 C 52.972656 15.09375 52.960938 14.992188 52.878906 14.917969 C 52.792969 14.835938 52.59375 14.828125 51.191406 14.828125 C 49.429688 14.828125 49.324219 14.8125 49.15625 14.496094 C 49.078125 14.347656 49.0625 14.1875 49.0625 13.390625 L 49.0625 12.460938 L 50.898438 12.445312 C 52.550781 12.433594 52.742188 12.425781 52.804688 12.34375 C 52.847656 12.285156 52.867188 12.03125 52.867188 11.558594 C 52.867188 10.949219 52.855469 10.847656 52.773438 10.773438 C 52.683594 10.691406 52.472656 10.679688 50.851562 10.679688 L 49.023438 10.679688 L 49.039062 9.84375 C 49.0625 8.933594 49.09375 8.816406 49.386719 8.625 C 49.511719 8.539062 49.707031 8.53125 51.160156 8.511719 C 53.140625 8.496094 52.972656 8.582031 52.972656 7.621094 C 52.972656 6.839844 52.941406 6.78125 52.496094 6.726562 C 51.214844 6.574219 49.605469 6.546875 48.902344 6.675781 Z M 48.902344 6.675781 "/>
<path style=" stroke:none;fill-rule:nonzero;fill:rgb(0%,0%,0%);fill-opacity:1;" d="M 38.515625 6.78125 C 38.445312 6.851562 38.429688 7.003906 38.429688 7.648438 C 38.429688 8.183594 38.449219 8.449219 38.492188 8.492188 C 38.539062 8.539062 38.890625 8.554688 39.753906 8.554688 L 40.949219 8.554688 L 40.949219 12.457031 C 40.949219 14.863281 40.972656 16.414062 41.003906 16.496094 L 41.054688 16.632812 L 42.066406 16.632812 C 42.789062 16.632812 43.097656 16.617188 43.144531 16.570312 C 43.191406 16.523438 43.207031 15.550781 43.207031 12.53125 L 43.207031 8.554688 L 44.40625 8.554688 C 45.265625 8.554688 45.617188 8.539062 45.664062 8.492188 C 45.707031 8.449219 45.726562 8.179688 45.726562 7.617188 C 45.726562 6.871094 45.71875 6.800781 45.628906 6.75 C 45.558594 6.71875 44.347656 6.695312 42.058594 6.695312 C 38.980469 6.695312 38.585938 6.707031 38.515625 6.78125 Z M 38.515625 6.78125 "/>
<path style=" stroke:none;fill-rule:nonzero;fill:rgb(0%,0%,0%);fill-opacity:1;" d="M 54.351562 6.734375 C 54.316406 6.742188 54.285156 6.792969 54.285156 6.835938 C 54.285156 6.875 54.9375 7.945312 55.734375 9.203125 C 56.546875 10.507812 57.167969 11.542969 57.15625 11.589844 C 57.144531 11.636719 56.496094 12.753906 55.714844 14.078125 C 54.882812 15.480469 54.300781 16.511719 54.320312 16.554688 C 54.34375 16.621094 54.53125 16.632812 55.464844 16.632812 C 56.585938 16.632812 56.589844 16.632812 56.683594 16.507812 C 56.738281 16.4375 57.144531 15.746094 57.59375 14.964844 C 58.039062 14.1875 58.417969 13.550781 58.4375 13.550781 C 58.453125 13.550781 58.890625 14.226562 59.402344 15.050781 C 59.917969 15.878906 60.363281 16.570312 60.394531 16.589844 C 60.425781 16.617188 60.996094 16.628906 61.660156 16.617188 C 62.691406 16.605469 62.867188 16.597656 62.882812 16.527344 C 62.890625 16.480469 62.210938 15.351562 61.378906 14.011719 L 59.855469 11.578125 L 61.316406 9.230469 C 62.484375 7.355469 62.769531 6.867188 62.730469 6.792969 C 62.683594 6.707031 62.578125 6.695312 61.628906 6.695312 C 61.050781 6.695312 60.539062 6.71875 60.484375 6.75 C 60.433594 6.777344 60.011719 7.414062 59.5625 8.167969 C 59.105469 8.921875 58.707031 9.566406 58.675781 9.601562 C 58.632812 9.652344 58.402344 9.320312 57.765625 8.300781 C 57.296875 7.550781 56.867188 6.882812 56.804688 6.8125 C 56.699219 6.695312 56.671875 6.695312 55.554688 6.703125 C 54.929688 6.703125 54.382812 6.71875 54.351562 6.734375 Z M 54.351562 6.734375 "/>
<path style=" stroke:none;fill-rule:nonzero;fill:rgb(0%,0%,0%);fill-opacity:1;" d="M 28.539062 6.835938 C 28.496094 6.945312 30.890625 15.359375 31.0625 15.71875 C 31.238281 16.066406 31.625 16.441406 31.957031 16.585938 C 32.097656 16.644531 32.390625 16.71875 32.613281 16.753906 C 33.300781 16.855469 33.882812 16.679688 34.382812 16.230469 C 34.855469 15.800781 34.722656 16.207031 37.011719 7.980469 C 37.160156 7.445312 37.273438 6.957031 37.265625 6.890625 C 37.25 6.777344 37.238281 6.777344 36.183594 6.757812 C 35.121094 6.75 35.121094 6.75 35.070312 6.867188 C 35.039062 6.933594 34.582031 8.625 34.050781 10.625 C 33.515625 12.621094 33.054688 14.273438 33.023438 14.296875 C 32.902344 14.371094 32.777344 14.285156 32.71875 14.09375 C 32.6875 13.988281 32.246094 12.320312 31.730469 10.390625 C 31.222656 8.460938 30.78125 6.851562 30.75 6.8125 C 30.710938 6.765625 30.421875 6.75 29.636719 6.75 C 28.710938 6.75 28.566406 6.757812 28.539062 6.835938 Z M 28.539062 6.835938 "/>
</g>
</svg>
