<?xml version="1.0" encoding="UTF-8"?>
<svg xmlns="http://www.w3.org/2000/svg" xmlns:xlink="http://www.w3.org/1999/xlink" width="64px" height="50px" viewBox="0 0 64 50" version="1.1">
<g id="surface1">
<path style=" stroke:none;fill-rule:nonzero;fill:rgb(0%,0%,0%);fill-opacity:1;" d="M 40.25 17.640625 L 40.25 27.722656 L 43.523438 27.722656 L 43.523438 20.160156 L 45.105469 20.160156 C 46.917969 20.160156 48.453125 19.554688 49.257812 18.546875 C 50.011719 17.566406 50.414062 15.347656 50.238281 12.953125 C 49.910156 8.492188 48.753906 7.585938 43.347656 7.558594 L 40.25 7.558594 Z M 46.238281 10.734375 C 46.742188 11.089844 46.792969 11.316406 46.792969 13.859375 C 46.792969 16.40625 46.742188 16.632812 46.238281 16.984375 C 45.9375 17.210938 45.183594 17.390625 44.605469 17.390625 L 43.523438 17.390625 L 43.523438 10.332031 L 44.605469 10.332031 C 45.183594 10.332031 45.9375 10.507812 46.238281 10.734375 Z M 46.238281 10.734375 "/>
<path style=" stroke:none;fill-rule:nonzero;fill:rgb(0%,0%,0%);fill-opacity:1;" d="M 31.875 10.507812 C 33.382812 21.394531 33.910156 25 34.039062 24.699219 C 34.113281 24.496094 34.539062 21.320312 34.96875 17.640625 C 35.394531 13.960938 35.796875 10.710938 35.875 10.382812 C 35.976562 9.855469 35.925781 9.828125 33.886719 9.828125 L 31.773438 9.828125 Z M 31.875 10.507812 "/>
<path style=" stroke:none;fill-rule:nonzero;fill:rgb(0%,0%,0%);fill-opacity:1;" d="M 17.660156 19.960938 L 17.734375 28.351562 L 18.363281 29.484375 C 19.296875 31.148438 20.703125 31.828125 23.042969 31.679688 C 25.28125 31.550781 26.414062 30.921875 27.144531 29.386719 C 27.648438 28.378906 27.671875 27.898438 27.671875 19.960938 L 27.671875 11.59375 L 24.652344 11.59375 L 24.652344 19.605469 C 24.652344 28.277344 24.628906 28.503906 23.269531 28.832031 C 22.640625 28.980469 21.660156 28.652344 21.332031 28.125 C 21.234375 27.972656 21.132812 24.195312 21.132812 19.707031 L 21.132812 11.59375 L 17.585938 11.59375 Z M 17.660156 19.960938 "/>
<path style=" stroke:none;fill-rule:nonzero;fill:rgb(0%,0%,0%);fill-opacity:1;" d="M 12.578125 21.875 C 12.578125 31.074219 12.605469 30.996094 10.667969 30.996094 L 9.558594 30.996094 L 9.558594 34.074219 L 11.320312 33.972656 C 13.28125 33.871094 14.136719 33.390625 14.96875 31.980469 C 15.445312 31.175781 15.472656 30.59375 15.546875 22.480469 L 15.621094 13.859375 L 12.578125 13.859375 Z M 12.578125 21.875 "/>
<path style=" stroke:none;fill-rule:nonzero;fill:rgb(0%,0%,0%);fill-opacity:1;" d="M 29.960938 22.859375 L 29.9375 29.738281 L 32.652344 29.738281 L 32.300781 27.898438 C 32.101562 26.914062 31.496094 23.816406 30.96875 21.042969 L 29.988281 16.003906 Z M 29.960938 22.859375 "/>
<path style=" stroke:none;fill-rule:nonzero;fill:rgb(0%,0%,0%);fill-opacity:1;" d="M 37.007812 22.355469 C 36.425781 25.804688 35.875 28.855469 35.796875 29.160156 C 35.671875 29.710938 35.75 29.738281 36.957031 29.738281 L 38.238281 29.738281 L 38.238281 22.933594 C 38.238281 19.179688 38.214844 16.128906 38.164062 16.128906 C 38.113281 16.128906 37.609375 18.925781 37.007812 22.355469 Z M 37.007812 22.355469 "/>
<path style=" stroke:none;fill-rule:nonzero;fill:rgb(0%,0%,0%);fill-opacity:1;" d="M 50.945312 22.554688 C 50.1875 23.3125 50.136719 24.167969 50.84375 25.050781 C 51.445312 25.804688 52.652344 25.933594 53.535156 25.300781 C 53.9375 25.023438 54.089844 24.671875 54.089844 23.941406 C 54.089844 22.101562 52.203125 21.269531 50.945312 22.554688 Z M 50.945312 22.554688 "/>
<path style=" stroke:none;fill-rule:nonzero;fill:rgb(0%,0%,0%);fill-opacity:1;" d="M 24.226562 36.515625 C 23.796875 36.792969 23.296875 37.246094 23.167969 37.523438 C 22.765625 38.257812 22.84375 40.246094 23.269531 41.105469 C 23.976562 42.441406 26.214844 42.816406 27.296875 41.734375 L 27.898438 41.128906 L 28 41.808594 C 28.050781 42.164062 28.125 41.757812 28.152344 40.878906 L 28.175781 39.316406 L 26.867188 39.363281 L 25.535156 39.414062 L 26.742188 39.492188 C 28 39.589844 28.175781 39.867188 27.621094 40.902344 C 27.167969 41.757812 26.617188 42.0625 25.585938 42.085938 C 24.855469 42.085938 24.453125 41.910156 23.875 41.355469 C 22.441406 39.894531 23.144531 36.921875 25.082031 36.441406 C 25.960938 36.214844 27.121094 36.71875 27.546875 37.523438 C 27.773438 37.929688 27.898438 38.027344 27.925781 37.777344 C 27.925781 37.171875 26.84375 36.289062 25.886719 36.140625 C 25.28125 36.0625 24.78125 36.164062 24.226562 36.515625 Z M 24.226562 36.515625 "/>
<path style=" stroke:none;fill-rule:nonzero;fill:rgb(0%,0%,0%);fill-opacity:1;" d="M 9.609375 39.238281 L 9.683594 42.210938 L 10.816406 42.289062 C 12.175781 42.363281 13.558594 41.734375 14.011719 40.828125 C 14.691406 39.464844 14.1875 37.148438 13.105469 36.542969 C 12.832031 36.417969 11.925781 36.289062 11.070312 36.289062 L 9.535156 36.289062 Z M 13.257812 37.148438 C 13.863281 37.675781 13.960938 37.929688 13.960938 39.164062 C 13.960938 41.027344 13.207031 41.859375 11.347656 42.035156 L 10.0625 42.164062 L 10.0625 36.542969 L 11.296875 36.542969 C 12.25 36.542969 12.703125 36.695312 13.257812 37.148438 Z M 13.257812 37.148438 "/>
<path style=" stroke:none;fill-rule:nonzero;fill:rgb(0%,0%,0%);fill-opacity:1;" d="M 18.71875 39.316406 C 18.71875 41.054688 18.742188 41.757812 18.792969 40.878906 C 18.84375 40.019531 18.84375 38.609375 18.792969 37.726562 C 18.742188 36.871094 18.71875 37.574219 18.71875 39.316406 Z M 18.71875 39.316406 "/>
<path style=" stroke:none;fill-rule:nonzero;fill:rgb(0%,0%,0%);fill-opacity:1;" d="M 31.949219 39.1875 C 31.949219 40.953125 32.050781 42.085938 32.203125 42.085938 C 32.351562 42.085938 32.453125 40.953125 32.453125 39.1875 C 32.453125 37.425781 32.351562 36.289062 32.203125 36.289062 C 32.050781 36.289062 31.949219 37.425781 31.949219 39.1875 Z M 31.949219 39.1875 "/>
<path style=" stroke:none;fill-rule:nonzero;fill:rgb(0%,0%,0%);fill-opacity:1;" d="M 37.660156 36.464844 L 38.71875 36.566406 L 38.816406 39.515625 L 38.894531 42.464844 L 38.945312 39.515625 L 38.992188 36.566406 L 40.203125 36.464844 C 40.855469 36.417969 40.300781 36.390625 38.992188 36.390625 C 37.683594 36.390625 37.082031 36.417969 37.660156 36.464844 Z M 37.660156 36.464844 "/>
<path style=" stroke:none;fill-rule:nonzero;fill:rgb(0%,0%,0%);fill-opacity:1;" d="M 45.433594 36.492188 C 45.382812 36.59375 44.855469 37.828125 44.300781 39.265625 C 43.269531 41.859375 42.894531 43.398438 43.773438 41.382812 L 44.25 40.324219 L 45.761719 40.324219 C 47.09375 40.324219 47.246094 40.371094 47.371094 40.878906 C 47.472656 41.203125 47.699219 41.683594 47.925781 41.960938 C 48.300781 42.464844 48.226562 42.210938 46.566406 37.980469 C 45.9375 36.367188 45.710938 36.0625 45.433594 36.492188 Z M 46.515625 38.535156 C 46.792969 39.289062 46.992188 39.945312 46.945312 39.996094 C 46.894531 40.046875 46.289062 40.070312 45.585938 40.019531 L 44.328125 39.945312 L 44.957031 38.355469 C 45.308594 37.476562 45.683594 36.84375 45.8125 36.972656 C 45.910156 37.070312 46.238281 37.777344 46.515625 38.535156 Z M 46.515625 38.535156 "/>
<path style=" stroke:none;fill-rule:nonzero;fill:rgb(0%,0%,0%);fill-opacity:1;" d="M 50.617188 39.238281 L 50.566406 42.339844 L 52.527344 42.289062 L 54.464844 42.238281 L 52.652344 42.164062 L 50.84375 42.0625 L 50.742188 39.113281 L 50.667969 36.164062 Z M 50.617188 39.238281 "/>
</g>
</svg>
