<?xml version="1.0" encoding="UTF-8"?>
<svg xmlns="http://www.w3.org/2000/svg" xmlns:xlink="http://www.w3.org/1999/xlink" width="16px" height="16px" viewBox="0 0 16 16" version="1.1">
<g id="surface1">
<path style=" stroke:none;fill-rule:nonzero;fill:rgb(0%,0%,0%);fill-opacity:1;" d="M 4.167969 0.0585938 C 4.054688 0.128906 4.011719 0.230469 3.988281 0.496094 C 3.960938 0.75 3.867188 1.085938 3.773438 1.222656 C 3.714844 1.308594 3.675781 1.332031 3.558594 1.347656 C 3.257812 1.390625 3.050781 1.570312 2.683594 2.085938 C 2.460938 2.40625 2.402344 2.460938 2.085938 2.699219 C 1.460938 3.164062 1.320312 3.367188 1.351562 3.796875 C 1.390625 4.40625 1.875 4.910156 2.671875 5.164062 C 2.976562 5.265625 3.195312 5.304688 3.617188 5.332031 C 3.867188 5.347656 3.9375 5.363281 3.957031 5.402344 C 3.96875 5.429688 3.984375 5.746094 3.992188 6.109375 L 4.007812 6.765625 L 3.757812 7.257812 C 3.445312 7.867188 3.375 8.132812 3.351562 8.78125 C 3.335938 9.195312 3.34375 9.261719 3.417969 9.570312 C 3.503906 9.898438 3.722656 10.492188 3.902344 10.875 L 4 11.078125 L 4 13.992188 L 3.710938 14.007812 C 3.363281 14.023438 3.160156 14.101562 2.976562 14.289062 C 2.71875 14.554688 2.644531 14.828125 2.664062 15.40625 C 2.675781 15.820312 2.714844 15.914062 2.902344 15.96875 C 2.980469 15.992188 4.339844 16 7.296875 15.992188 C 11.949219 15.980469 11.703125 15.992188 12.25 15.8125 C 13.007812 15.5625 13.558594 15.007812 13.8125 14.25 C 13.984375 13.722656 14.042969 13 13.957031 12.414062 C 13.863281 11.773438 13.726562 11.394531 13.28125 10.53125 C 12.789062 9.570312 12.683594 9.257812 12.679688 8.6875 C 12.679688 8.492188 12.695312 8.242188 12.714844 8.140625 C 12.898438 7.289062 13.453125 6.757812 14.273438 6.671875 C 14.433594 6.652344 14.488281 6.632812 14.5625 6.554688 C 14.761719 6.355469 14.632812 6.039062 14.335938 6.007812 C 14.132812 5.984375 13.710938 6.082031 13.421875 6.214844 C 12.804688 6.507812 12.386719 6.992188 12.160156 7.671875 C 11.945312 8.324219 11.949219 9.027344 12.179688 9.730469 C 12.226562 9.867188 12.414062 10.289062 12.601562 10.65625 C 13 11.441406 13.128906 11.734375 13.214844 12.078125 C 13.351562 12.617188 13.359375 13.371094 13.234375 13.859375 C 13.152344 14.179688 12.949219 14.550781 12.75 14.75 C 12.550781 14.949219 12.179688 15.152344 11.859375 15.234375 C 11.574219 15.308594 10.65625 15.382812 10.65625 15.328125 C 10.65625 15.320312 10.726562 15.226562 10.816406 15.117188 C 11.007812 14.882812 11.195312 14.5 11.273438 14.203125 C 11.320312 14.015625 11.328125 13.839844 11.328125 12.96875 C 11.328125 12.289062 11.316406 11.875 11.289062 11.71875 C 11.152344 10.917969 10.789062 10.253906 10.144531 9.605469 C 9.988281 9.453125 9.472656 8.976562 9 8.546875 C 7.617188 7.289062 7.289062 6.953125 7.097656 6.59375 L 7 6.414062 L 7 4.617188 C 7 2.601562 6.996094 2.554688 6.769531 2.167969 C 6.640625 1.949219 6.296875 1.613281 6.089844 1.503906 C 5.964844 1.4375 5.933594 1.398438 5.859375 1.222656 C 5.8125 1.109375 5.695312 0.898438 5.601562 0.757812 C 5.351562 0.371094 5.054688 0.148438 4.671875 0.046875 C 4.429688 -0.015625 4.289062 -0.0117188 4.167969 0.0585938 Z M 4.167969 0.0585938 "/>
</g>
</svg>
