<?xml version="1.0" encoding="UTF-8"?>
<svg xmlns="http://www.w3.org/2000/svg" xmlns:xlink="http://www.w3.org/1999/xlink" width="16px" height="16px" viewBox="0 0 16 16" version="1.1">
<g id="surface1">
<path style=" stroke:none;fill-rule:nonzero;fill:rgb(0%,0%,0%);fill-opacity:1;" d="M 10.859375 0.0546875 C 10.808594 0.0859375 10.746094 0.148438 10.726562 0.191406 C 10.707031 0.230469 10.179688 1.664062 9.5625 3.371094 C 8.945312 5.082031 8.433594 6.480469 8.429688 6.484375 C 8.425781 6.484375 8.234375 6.550781 8.003906 6.621094 C 6.867188 6.992188 5.808594 7.71875 5.015625 8.671875 C 4.617188 9.148438 4.195312 9.890625 3.984375 10.46875 C 3.757812 11.097656 3.632812 11.941406 3.671875 12.539062 C 3.742188 13.652344 4.085938 14.550781 4.65625 15.117188 L 4.789062 15.25 L 4.375 15.25 C 2.992188 15.25 1.769531 14.523438 1.09375 13.296875 C 1.023438 13.167969 0.929688 13.035156 0.882812 13 C 0.730469 12.878906 0.453125 12.945312 0.359375 13.125 C 0.292969 13.257812 0.300781 13.335938 0.402344 13.554688 C 0.679688 14.132812 1.316406 14.851562 1.894531 15.226562 C 2.402344 15.566406 2.898438 15.773438 3.507812 15.914062 C 3.792969 15.980469 3.847656 15.980469 7.617188 15.992188 C 11.132812 16 11.445312 15.996094 11.550781 15.949219 C 11.609375 15.921875 11.679688 15.859375 11.703125 15.808594 C 11.789062 15.640625 11.738281 15.222656 11.59375 14.941406 C 11.425781 14.601562 11.023438 14.289062 10.558594 14.121094 L 10.285156 14.023438 L 10.332031 13.910156 C 10.511719 13.496094 10.59375 13.125 10.59375 12.726562 C 10.59375 12.496094 10.601562 12.464844 10.648438 12.476562 C 10.679688 12.480469 11.160156 13.1875 11.796875 14.164062 C 12.398438 15.085938 12.925781 15.875 12.960938 15.914062 C 13.03125 15.984375 13.042969 15.984375 13.855469 15.984375 L 14.679688 15.984375 L 14.761719 15.910156 C 14.878906 15.800781 14.914062 15.644531 14.859375 15.507812 C 14.835938 15.445312 14.648438 15.136719 14.445312 14.816406 C 14.246094 14.496094 13.773438 13.738281 13.398438 13.132812 L 12.71875 12.027344 L 12.71875 5.847656 L 13.058594 5.847656 C 14.132812 5.84375 15.085938 5.246094 15.621094 4.234375 C 15.699219 4.085938 15.703125 3.996094 15.636719 3.855469 C 15.578125 3.730469 15.550781 3.71875 14.539062 3.3125 C 13.863281 3.039062 13.820312 3.015625 13.800781 2.929688 C 13.769531 2.777344 13.625 2.511719 13.476562 2.347656 C 13.378906 2.230469 13.269531 2.152344 13.078125 2.058594 L 12.820312 1.929688 L 12.800781 1.785156 C 12.789062 1.707031 12.765625 1.464844 12.746094 1.253906 C 12.710938 0.828125 12.671875 0.710938 12.53125 0.640625 C 12.320312 0.535156 12.191406 0.589844 11.894531 0.921875 C 11.773438 1.054688 11.667969 1.148438 11.65625 1.132812 C 11.644531 1.121094 11.582031 0.917969 11.515625 0.6875 C 11.382812 0.207031 11.320312 0.0820312 11.179688 0.0351562 C 11.042969 -0.0117188 10.964844 -0.0078125 10.859375 0.0546875 Z M 10.859375 0.0546875 "/>
</g>
</svg>
