<?xml version="1.0" standalone="no"?>
<!DOCTYPE svg PUBLIC "-//W3C//DTD SVG 20010904//EN"
 "http://www.w3.org/TR/2001/REC-SVG-20010904/DTD/svg10.dtd">
<svg version="1.0" xmlns="http://www.w3.org/2000/svg"
 width="16.000000pt" height="16.000000pt" viewBox="0 0 16.000000 16.000000"
 preserveAspectRatio="xMidYMid meet">

<g transform="translate(0.000000,16.000000) scale(0.100000,-0.100000)"
fill="#000000" stroke="none">
<path d="M0 80 c0 -44 4 -80 8 -80 5 0 8 19 8 43 l-1 42 65 0 65 0 3 -32 c3
-28 1 -32 -15 -26 -17 6 -17 6 -1 -10 9 -9 19 -17 22 -17 3 0 6 36 6 80 l0 80
-50 0 c-47 0 -50 -2 -60 -32 l-10 -33 3 30 c2 26 -1 31 -20 33 -22 2 -23 -1
-23 -78z m101 43 c0 -15 2 -15 9 2 8 19 9 19 9 -2 1 -28 -23 -31 -39 -5 -11
16 -11 16 -6 0 3 -10 1 -18 -4 -18 -6 0 -10 9 -10 20 0 26 40 28 41 3z"/>
<path d="M28 50 c5 -38 9 -38 14 0 3 19 0 30 -7 30 -7 0 -10 -11 -7 -30z"/>
<path d="M75 55 c-7 -26 -9 -27 -16 -10 -7 19 -8 18 -8 -2 -1 -19 4 -23 27
-23 26 1 62 20 62 34 0 3 -11 6 -24 6 -13 0 -26 6 -29 13 -2 6 -8 -1 -12 -18z"/>
</g>
</svg>
